{
    "asset" : {
        "generator" : "Khronos glTF Blender I/O v1.7.17",
        "version" : "2.0"
    },
    "scene" : 0,
    "scenes" : [
        {
            "name" : "Scene",
            "nodes" : [
                0
            ]
        }
    ],
    "nodes" : [
        {
            "mesh" : 0,
            "name" : "tsuru",
            "rotation" : [
                0,
                -0.7071068286895752,
                0,
                0.7071068286895752
            ],
            "translation" : [
                0,
                0.4195343554019928,
                -0.012036529369652271
            ]
        }
    ],
    "materials" : [
        {
            "doubleSided" : true,
            "name" : "Crane",
            "pbrMetallicRoughness" : {
                "baseColorTexture" : {
                    "index" : 0
                },
                "metallicFactor" : 0
            }
        }
    ],
    "meshes" : [
        {
            "name" : "Vert.008",
            "primitives" : [
                {
                    "attributes" : {
                        "POSITION" : 0,
                        "NORMAL" : 1,
                        "TEXCOORD_0" : 2,
                        "COLOR_0" : 3
                    },
                    "indices" : 4,
                    "material" : 0
                }
            ]
        }
    ],
    "textures" : [
        {
            "sampler" : 0,
            "source" : 0
        }
    ],
    "images" : [
        {
            "bufferView" : 5,
            "mimeType" : "image/png",
            "name" : "newpaper"
        }
    ],
    "accessors" : [
        {
            "bufferView" : 0,
            "componentType" : 5126,
            "count" : 1389,
            "max" : [
                0.6256828904151917,
                0.43028247356414795,
                0.4037228524684906
            ],
            "min" : [
                -0.527429461479187,
                -0.36237454414367676,
                -0.48550236225128174
            ],
            "type" : "VEC3"
        },
        {
            "bufferView" : 1,
            "componentType" : 5126,
            "count" : 1389,
            "type" : "VEC3"
        },
        {
            "bufferView" : 2,
            "componentType" : 5126,
            "count" : 1389,
            "type" : "VEC2"
        },
        {
            "bufferView" : 3,
            "componentType" : 5123,
            "count" : 1389,
            "normalized" : true,
            "type" : "VEC4"
        },
        {
            "bufferView" : 4,
            "componentType" : 5123,
            "count" : 4656,
            "type" : "SCALAR"
        }
    ],
    "bufferViews" : [
        {
            "buffer" : 0,
            "byteLength" : 16668,
            "byteOffset" : 0
        },
        {
            "buffer" : 0,
            "byteLength" : 16668,
            "byteOffset" : 16668
        },
        {
            "buffer" : 0,
            "byteLength" : 11112,
            "byteOffset" : 33336
        },
        {
            "buffer" : 0,
            "byteLength" : 11112,
            "byteOffset" : 44448
        },
        {
            "buffer" : 0,
            "byteLength" : 9312,
            "byteOffset" : 55560
        },
        {
            "buffer" : 0,
            "byteLength" : 383871,
            "byteOffset" : 64872
        }
    ],
    "samplers" : [
        {
            "magFilter" : 9729,
            "minFilter" : 9987
        }
    ],
    "buffers" : [
        {
            "byteLength" : 448744,
            "uri" : "data:application/octet-stream;base64,"
        }
    ]
}
